# xmcd CD database file
#
# Track frame offsets:
#	150
#	860
#	41683
#	82521
#	104371
#	124262
#	153930
#	183098
#	207838
#	229871
#	256226
#	280680
#	308071
#	322696
#	348845
#
# Disc length: 4655 seconds
#
# Revision: 1
# Processed by: cddbd v1.5.2PL0 Copyright (c) Steve Scherf et al.
# Submitted via: CDex 1.70beta2
#
DISCID=aa122d0f
DTITLE=Ugo Riccarelli - Der vollkommene Schmerz
DYEAR=2007
DGENRE=Hörbuch
TTITLE0=55
TTITLE1=56
TTITLE2=57
TTITLE3=58
TTITLE4=59
TTITLE5=60
TTITLE6=61
TTITLE7=62
TTITLE8=63
TTITLE9=64
TTITLE10=65
TTITLE11=66
TTITLE12=67
TTITLE13=68
TTITLE14=69
EXTD=YEAR: 2007
EXTT0=
EXTT1=
EXTT2=
EXTT3=
EXTT4=
EXTT5=
EXTT6=
EXTT7=
EXTT8=
EXTT9=
EXTT10=
EXTT11=
EXTT12=
EXTT13=
EXTT14=
PLAYORDER=
